<svg xmlns="http://www.w3.org/2000/svg" width="100" height="100" viewBox="0 0 30 30"><path fill="#fff" d="M18.36 3.48C17.93 4.94 16.59 6 15 6s-2.93-1.06-3.36-2.52C12.7 3.17 13.83 3 15 3s2.3.17 3.36.48zM15 8a1 1 0 1 0 0 2 1 1 0 1 0 0-2zm0 12a1 1 0 1 0 0 2 1 1 0 1 0 0-2zm3.36 6.52c-1.06.31-2.19.48-3.36.48s-2.3-.17-3.36-.48C12.07 25.06 13.41 24 15 24s2.93 1.06 3.36 2.52zM27 15c0 1.17-.17 2.3-.48 3.36A3.504 3.504 0 0 1 24 15c0-1.59 1.06-2.93 2.52-3.36.31 1.06.48 2.19.48 3.36zm-6-1a1 1 0 1 0 0 2 1 1 0 1 0 0-2zM9 14a1 1 0 1 0 0 2 1 1 0 1 0 0-2zm-3 1c0 1.59-1.06 2.93-2.52 3.36C3.17 17.3 3 16.17 3 15s.17-2.3.48-3.36C4.94 12.07 6 13.41 6 15zm19.53-5.77c-1.33.73-3.04.53-4.17-.59a3.527 3.527 0 0 1-.59-4.17c2 1.1 3.66 2.76 4.76 4.76zm-6.287.527a1 1 0 1 0 0 2 1 1 0 1 0 0-2zm-8.486 8.486a1 1 0 1 0 0 2 1 1 0 1 0 0-2zM9.23 25.53c-2-1.1-3.66-2.76-4.76-4.76 1.33-.73 3.04-.53 4.17.59a3.527 3.527 0 0 1 .59 4.17zM8.64 8.64a3.527 3.527 0 0 1-4.17.59c1.1-2 2.76-3.66 4.76-4.76.73 1.33.53 3.04-.59 4.17zm2.117 1.117a1 1 0 1 0 0 2 1 1 0 1 0 0-2zm8.486 8.486a1 1 0 1 0 0 2 1 1 0 1 0 0-2zm6.287 2.527c-1.1 2-2.76 3.66-4.76 4.76-.73-1.33-.53-3.04.59-4.17a3.527 3.527 0 0 1 4.17-.59z"/></svg>